<?xml version="1.0" encoding="utf-8"?>
<!-- Generator: Adobe Illustrator 19.0.0, SVG Export Plug-In . SVG Version: 6.00 Build 0)  -->
<svg version="1.1" id="Calque_1" xmlns="http://www.w3.org/2000/svg" xmlns:xlink="http://www.w3.org/1999/xlink" x="0px" y="0px"
	 viewBox="0 0 443 354" style="enable-background:new 0 0 443 354;" xml:space="preserve">
<style type="text/css">
	.st0{clip-path:url(#SVGID_4_);}
</style>
<g>
	<defs>
		<rect id="SVGID_1_" x="-244" y="-97.2" width="841.9" height="595.2"/>
	</defs>
	<clipPath id="SVGID_2_">
		<use xlink:href="#SVGID_1_"  style="overflow:visible;"/>
	</clipPath>
	<g style="clip-path:url(#SVGID_2_);">
		
			<image style="overflow:visible;" width="3508" height="2480" xlink:href="2A38C5E7.jpg"  transform="matrix(0.24 0 0 0.24 -244 -97.2)">
		</image>
	</g>
</g>
<g>
	<defs>
		<path id="SVGID_3_" d="M293.7,270.7h2.6v22.1h10.6v2.2h-13.1V270.7z M315.3,270.7h2.6v22.1h10.6v2.2h-13.1V270.7z M340.6,272.8
			h-3.5v-2.2h9.6v2.2h-3.5v19.9h3.5v2.2h-9.6v-2.2h3.5V272.8z M360,287.4l-2,8l-2.5-0.7l6.5-24h3.1l6.5,24l-2.5,0.7l-2-8H360z
			 M363.5,273.9L363.5,273.9l-2.9,11.3h5.8L363.5,273.9z M378.4,270.7h3.2l7.6,20.4l0.1-0.1l-0.1-5.4v-14.9h2.6v24.2h-3.2l-7.6-20.4
			l-0.1,0.1l0.1,5.5v14.9h-2.6V270.7z M413.9,291.3c-1.5,2.3-3.7,4-6.7,4c-6.7,0-7.7-7.6-7.7-12.4c0-4.8,1-12.5,7.7-12.5
			c2.9,0,4.9,1.6,6.3,3.9l-2.2,1.2c-0.8-1.5-2.1-2.9-4.1-2.9c-4.7,0-5,7-5,10.2c0,3.2,0.3,10.1,5,10.1c2,0,3.6-1.6,4.5-3.1
			L413.9,291.3z M422.8,270.7h12.5v2.2h-9.9v8h8.2v2.2h-8.2v9.7h9.9v2.2h-12.5V270.7z"/>
	</defs>
	<clipPath id="SVGID_4_">
		<use xlink:href="#SVGID_3_"  style="overflow:visible;"/>
	</clipPath>
	<g class="st0">
		<defs>
			<rect id="SVGID_5_" x="-244" y="-97.2" width="841.9" height="595.2"/>
		</defs>
		<clipPath id="SVGID_6_">
			<use xlink:href="#SVGID_5_"  style="overflow:visible;"/>
		</clipPath>
		<g style="clip-path:url(#SVGID_6_);">
			
				<image style="overflow:visible;" width="3508" height="2480" xlink:href="2A38C5E5.jpg"  transform="matrix(0.24 0 0 0.24 -244 -97.2)">
			</image>
		</g>
	</g>
</g>
</svg>
